<mxfile host="65bd71144e">
    <diagram id="d0KVSsBpk4mr6iSmMgIT" name="第1頁">
        <mxGraphModel dx="2710" dy="1312" grid="1" gridSize="10" guides="1" tooltips="1" connect="1" arrows="1" fold="1" page="1" pageScale="1" pageWidth="827" pageHeight="1169" math="0" shadow="0">
            <root>
                <mxCell id="0"/>
                <mxCell id="1" parent="0"/>
                <mxCell id="4" value="" style="ellipse;shape=cloud;whiteSpace=wrap;html=1;" vertex="1" parent="1">
                    <mxGeometry x="-530" y="90" width="1020" height="740" as="geometry"/>
                </mxCell>
                <mxCell id="5" value="&lt;font style=&quot;font-size: 36px;&quot;&gt;網路掛號系統&lt;/font&gt;" style="text;html=1;align=center;verticalAlign=middle;resizable=0;points=[];autosize=1;strokeColor=none;fillColor=none;" vertex="1" parent="1">
                    <mxGeometry x="-130" y="870" width="240" height="60" as="geometry"/>
                </mxCell>
                <mxCell id="7" value="病患" style="ellipse;whiteSpace=wrap;html=1;fontSize=36;" vertex="1" parent="1">
                    <mxGeometry x="-254" y="260" width="170" height="110" as="geometry"/>
                </mxCell>
                <mxCell id="8" value="系統" style="ellipse;whiteSpace=wrap;html=1;fontSize=36;" vertex="1" parent="1">
                    <mxGeometry x="6" y="525" width="180" height="120" as="geometry"/>
                </mxCell>
                <mxCell id="14" value="病患資料" style="ellipse;whiteSpace=wrap;html=1;fontSize=36;" vertex="1" parent="1">
                    <mxGeometry x="136" y="300" width="160" height="130" as="geometry"/>
                </mxCell>
                <mxCell id="16" value="醫師" style="ellipse;whiteSpace=wrap;html=1;fontSize=36;" vertex="1" parent="1">
                    <mxGeometry x="-284" y="545" width="120" height="80" as="geometry"/>
                </mxCell>
                <mxCell id="21" style="edgeStyle=none;html=1;fontSize=24;entryX=0.209;entryY=0.11;entryDx=0;entryDy=0;entryPerimeter=0;" edge="1" parent="1" target="8">
                    <mxGeometry relative="1" as="geometry">
                        <mxPoint x="-114" y="360" as="sourcePoint"/>
                        <mxPoint x="36" y="530" as="targetPoint"/>
                    </mxGeometry>
                </mxCell>
                <mxCell id="23" style="edgeStyle=none;html=1;fontSize=24;dashed=1;entryX=0.706;entryY=0.964;entryDx=0;entryDy=0;entryPerimeter=0;" edge="1" parent="1" target="7">
                    <mxGeometry relative="1" as="geometry">
                        <mxPoint x="21.039999999999964" y="545" as="sourcePoint"/>
                        <mxPoint x="-144" y="545" as="targetPoint"/>
                        <Array as="points"/>
                    </mxGeometry>
                </mxCell>
                <mxCell id="29" style="edgeStyle=none;html=1;fontSize=24;entryX=0.332;entryY=0.993;entryDx=0;entryDy=0;entryPerimeter=0;" edge="1" parent="1" target="14">
                    <mxGeometry relative="1" as="geometry">
                        <mxPoint x="146" y="530" as="sourcePoint"/>
                        <mxPoint x="186" y="440" as="targetPoint"/>
                    </mxGeometry>
                </mxCell>
                <mxCell id="31" style="edgeStyle=none;html=1;entryX=0.605;entryY=0.01;entryDx=0;entryDy=0;fontSize=24;dashed=1;entryPerimeter=0;exitX=0.172;exitY=0.905;exitDx=0;exitDy=0;exitPerimeter=0;" edge="1" parent="1" source="14" target="8">
                    <mxGeometry relative="1" as="geometry">
                        <mxPoint x="446" y="520" as="sourcePoint"/>
                        <mxPoint x="276" y="520" as="targetPoint"/>
                        <Array as="points"/>
                    </mxGeometry>
                </mxCell>
                <mxCell id="32" style="edgeStyle=none;html=1;fontSize=24;dashed=1;entryX=0;entryY=0.625;entryDx=0;entryDy=0;entryPerimeter=0;" edge="1" parent="1" target="8">
                    <mxGeometry relative="1" as="geometry">
                        <mxPoint x="-164" y="600" as="sourcePoint"/>
                        <mxPoint x="-14" y="600" as="targetPoint"/>
                        <Array as="points">
                            <mxPoint x="-124" y="600"/>
                        </Array>
                    </mxGeometry>
                </mxCell>
                <mxCell id="33" style="edgeStyle=none;html=1;fontSize=24;entryX=1.02;entryY=0.444;entryDx=0;entryDy=0;entryPerimeter=0;" edge="1" parent="1" target="16">
                    <mxGeometry relative="1" as="geometry">
                        <mxPoint x="6" y="580.0000000000001" as="sourcePoint"/>
                        <mxPoint x="-84" y="580" as="targetPoint"/>
                    </mxGeometry>
                </mxCell>
            </root>
        </mxGraphModel>
    </diagram>
</mxfile>